<svg xmlns="http://www.w3.org/2000/svg" fill="#ffffff" height="64" width="64" viewBox="0 0 31.999999 31.999996"><path d="m16 1025.4c-2.216 0-4 1.784-4 4v10.008c-0.64751 0.8634-0.99831 1.913-1 2.9922 0 2.7614 2.2386 5 5 5s5-2.2386 5-5c-0.003-1.0765-0.35409-2.1232-1-2.9844v-10.016c0-2.216-1.784-4-4-4zm0 2c1.108 0 2 0.892 2 2v10.768c0.63536 0.5683 0.99896 1.38 1 2.2324 0 1.6569-1.3432 3-3 3s-3-1.3431-3-3c0.002-0.8517 0.36515-1.6626 1-2.2305v-10.77c0-1.108 0.892-2 2-2zm0 10c-0.554 0-1 0.446-1 1v2.2715c-0.61771 0.3566-0.99874 1.0152-1 1.7285 0 1.1046 0.89543 2 2 2s2-0.8954 2-2c-0.00056-0.714-0.38169-1.3735-1-1.7305v-2.2695c0-0.554-0.446-1-1-1z" transform="translate(0 -1020.4)"/></svg>
