<svg xmlns="http://www.w3.org/2000/svg" fill="#ffffff" height="64" width="64" viewBox="0 0 31.999999 31.999998"><path d="m15 1027.4c-3.2637 0-6.1985 1.9876-7.416 5.0156-2.8039 0.1949-5.0429 2.297-5.4961 4.9844h2.0508c0.4455-1.723 1.999-3 3.8613-3 0.36119 0 0.72057 0.051 1.0684 0.1485 0.4232-2.9517 2.9498-5.1447 5.9316-5.1485 2.8668 0 5.3313 2.0325 5.8828 4.8457 0.76276-0.5481 1.6779-0.8438 2.6172-0.8457 2.3139 0 4.1973 1.7534 4.4492 4h2.0254c-0.25631-3.3552-3.0537-6-6.4746-6-0.49867 0-0.99543 0.062-1.4805 0.1777-1.399-2.5722-4.0915-4.1746-7.0195-4.1777zm-12.025 12c-0.554 0-1 0.446-1 1s0.446 1 1 1h26c0.554 0 1-0.446 1-1s-0.446-1-1-1h-26zm0.0254 4c-0.554 0-1 0.446-1 1s0.446 1 1 1h26c0.554 0 1-0.446 1-1s-0.446-1-1-1h-26zm0 4c-0.554 0-1 0.446-1 1s0.446 1 1 1h26c0.554 0 1-0.446 1-1s-0.446-1-1-1h-26z" transform="translate(0 -1020.4)"/></svg>
