<svg xmlns="http://www.w3.org/2000/svg" fill="#ffffff" height="64" width="64" viewBox="0 0 31.999999 31.999998"><path d="m12 1020.4c-0.554 0-1 0.4459-1 1v1c0 0.554 0.446 1 1 1s1-0.446 1-1v-1c0-0.5541-0.446-1-1-1zm-7.7773 3.2207c-0.25562 0-0.51118 0.099-0.70703 0.295-0.39174 0.3917-0.39174 1.0223 0 1.414l0.70703 0.7071c0.39173 0.3917 1.0223 0.3917 1.4141 0 0.39174-0.3918 0.39174-1.0224 0-1.4141l-0.70703-0.707c-0.19587-0.1959-0.45142-0.295-0.70703-0.295zm15.555 0c-0.25561 0-0.51116 0.099-0.70703 0.295l-0.70703 0.707c-0.39174 0.3917-0.39174 1.0223 0 1.4141 0.39174 0.3917 1.0223 0.3917 1.4141 0l0.70704-0.7071c0.39174-0.3917 0.39174-1.0223 0-1.414-0.19586-0.1959-0.45142-0.295-0.70704-0.295zm-7.7773 0.7793c-4.4183 0-8 3.5817-8 8 0.003 1.5287 0.44322 3.0244 1.2695 4.3106-0.79688 1.0202-1.2693 2.3026-1.2695 3.6894 0 3.1615 2.4483 5.7416 5.5508 5.9727l1.1387-1.9727h-0.68945c-2.2091 0-4-1.7908-4-4s1.7909-4 4-4c0.36119 0.0009 0.72057 0.051 1.0684 0.1485 0.4232-2.9518 2.9498-5.1448 5.9316-5.1485 2.8668 0 5.3313 2.0325 5.8828 4.8457 0.76276-0.5481 1.6779-0.8439 2.6172-0.8457 2.4853 0 4.5 2.0147 4.5 4.5s-2.0147 4.5-4.5 4.5h-0.5l-1.1523 2h1.6523c3.5898 0 6.5-2.9102 6.5-6.5s-2.9102-6.5-6.5-6.5c-0.49867 0-0.99543 0.062-1.4805 0.1777-0.97266-1.7883-2.5777-3.0913-4.4453-3.7304-1.095-3.2525-4.1424-5.444-7.5742-5.4473zm0 2c2.1461 0 4.1271 1.1522 5.1953 3.0136-0.0657 0-0.12936-0.014-0.19531-0.014-3.2637 0-6.1985 1.9876-7.416 5.0156-1.0325 0.072-1.9856 0.4051-2.8047 0.9277-0.50853-0.8977-0.77694-1.9115-0.7793-2.9434 0-3.3137 2.6863-6 6-6zm-11 5c-0.554 0-1 0.4459-1 1 0 0.554 0.446 1 1 1h1c0.554 0 1-0.446 1-1 0-0.5541-0.446-1-1-1h-1zm15 9-2 6h2l-1 5 5-7h-3l2-4h-3z" transform="translate(0 -1020.4)"/></svg>
