<svg xmlns="http://www.w3.org/2000/svg" fill="#ffffff" height="64" width="64" viewBox="0 0 31.999999 31.999998"><path d="m12 1020.4c-0.554 0-1 0.446-1 1v1c0 0.554 0.446 1 1 1s1-0.446 1-1v-1c0-0.554-0.446-1-1-1zm-7.7773 3.2207c-0.2556 0-0.5112 0.099-0.7071 0.2949-0.3917 0.3917-0.3917 1.0224 0 1.4141l0.7071 0.707c0.3917 0.3918 1.0223 0.3918 1.414 0 0.3918-0.3917 0.3918-1.0223 0-1.414l-0.707-0.7071c-0.1959-0.1959-0.4514-0.2949-0.707-0.2949zm15.555 0c-0.2557 0-0.5112 0.099-0.7071 0.2949l-0.707 0.7071c-0.3917 0.3917-0.3917 1.0223 0 1.414 0.3917 0.3918 1.0223 0.3918 1.4141 0l0.707-0.707c0.3917-0.3918 0.3917-1.0224 0-1.4141-0.1959-0.1959-0.4514-0.2949-0.707-0.2949zm-7.7774 0.7793c-4.4183 0-8 3.5817-8 8 0 1.5286 0.4432 3.0245 1.2695 4.3106-0.7968 1.0203-1.2692 2.3025-1.2695 3.6894 0 3.1615 2.4483 5.7415 5.5508 5.9727l1.1387-1.9727h-0.6895c-2.2091 0-4-1.7909-4-4s1.7909-4 4-4c0.3612 0 0.7206 0.051 1.0684 0.1484 0.4232-2.9516 2.9498-5.1446 5.9316-5.1484 2.8668 0 5.3313 2.0325 5.8828 4.8457 0.7628-0.5481 1.6779-0.8439 2.6172-0.8457 2.4853 0 4.5 2.0147 4.5 4.5s-2.0147 4.5-4.5 4.5h-0.5l-1.1523 2h1.6523c3.5899 0 6.5-2.9102 6.5-6.5s-2.9101-6.5-6.5-6.5c-0.4987 0-0.9954 0.062-1.4805 0.1777-0.9726-1.7884-2.5776-3.0912-4.4453-3.7304-1.095-3.2524-4.1424-5.4441-7.5742-5.4473zm0 2c2.1461 0 4.1272 1.1523 5.1953 3.0137-0.066 0-0.1293-0.014-0.1953-0.014-3.2637 0-6.1985 1.9875-7.416 5.0156-1.0325 0.072-1.9857 0.4052-2.8047 0.9277-0.5085-0.8977-0.7769-1.9115-0.7793-2.9433 0-3.3137 2.6863-6 6-6zm-11 5c-0.554 0-1 0.446-1 1s0.446 1 1 1h1c0.554 0 1-0.446 1-1s-0.446-1-1-1h-1zm13.42 9.9902c-0.365 0-0.7026 0.1932-0.8808 0.5117l-4.418 7.6797c-0.7184-0.9427-1.5539-1.8318-2.8848-2.1543-1.2968-0.3151-1.7695 1.6303-0.4726 1.9454 1.0118 0.2451 1.7576 1.2552 2.6367 2.5722 0.4119 0.6177 1.3294 0.5871 1.6992-0.057l5.1699-8.9863c0.3948-0.6629-0.078-1.5043-0.8496-1.5117zm3.9922 0.012c-0.365 0-0.7026 0.1932-0.8808 0.5117l-3.4395 5.9864c-0.6643 1.1543 1.0651 2.1526 1.7324 1l3.4395-5.9863c0.3952-0.6637-0.079-1.5058-0.8516-1.5117zm4 0c-0.365 0-0.7026 0.1932-0.8808 0.5117l-5.1621 8.9747c-0.5115 0.8932 0.4973 1.8833 1.3808 1.3554 1.702-1.0234 2.1758-2.1083 5.1641-1.8476 1.3586 0.1513 1.5364-1.9086 0.1719-1.9922-1.3441-0.1173-2.3331 0.088-3.1934 0.3789l3.3711-5.8692c0.3952-0.6636-0.079-1.5057-0.8516-1.5117zm-19.412 4.9978a1 1 0 0 0 -1 1 1 1 0 0 0 1 1 1 1 0 0 0 1 -1 1 1 0 0 0 -1 -1zm23 2a1 1 0 0 0 -1 1 1 1 0 0 0 1 1 1 1 0 0 0 1 -1 1 1 0 0 0 -1 -1zm-13 2a1 1 0 0 0 -1 1 1 1 0 0 0 1 1 1 1 0 0 0 1 -1 1 1 0 0 0 -1 -1z" transform="translate(0 -1020.4)"/></svg>
