<svg xmlns="http://www.w3.org/2000/svg" fill="#ffffff" height="64" width="64" viewBox="0 0 31.999999 31.999998"><path d="m9.7481 1022.4c0.1649 0.6414 0.24953 1.3007 0.25195 1.9629 0 4.4183-3.5817 8-8 8-0.24979-0.0007-0.49941-0.013-0.74805-0.037 0.52182 2.0468 1.8319 3.8042 3.6445 4.8887-0.56746 0.9178-0.89625 1.9961-0.89648 3.1484 0 3.1616 2.4483 5.7416 5.5508 5.9727l1.1387-1.9727h-0.68945c-2.2091 0-4-1.7908-4-4 0-2.2091 1.7909-4 4-4 0.36119 0.001 0.72057 0.051 1.0684 0.1485 0.4232-2.9517 2.9498-5.1447 5.9316-5.1485 2.8668 0 5.3313 2.0325 5.8828 4.8457 0.76276-0.5481 1.6779-0.8438 2.6172-0.8457 2.4853 0 4.5 2.0147 4.5 4.5s-2.0147 4.5-4.5 4.5h-0.5l-1.1523 2h1.6523c3.5898 0 6.5-2.9101 6.5-6.5 0-3.5898-2.9102-6.5-6.5-6.5-0.49867 0-0.99543 0.062-1.4805 0.1777-1.399-2.5722-4.0915-4.1746-7.0195-4.1777-0.0245 0-0.0478 0.01-0.0723 0.01-0.46611-3.7176-3.4499-6.6137-7.1797-6.9687zm2.0996 2.709c1.6836 0.9083 2.8667 2.5731 3.1016 4.541-2.396 0.6394-4.4109 2.3549-5.3652 4.7285-1.2582 0.087-2.399 0.5632-3.3203 1.2989-0.80072-0.4257-1.4984-1.0305-2.043-1.7657 4.1598-0.9832 7.2836-4.4382 7.627-8.8027zm2.2754 17.262c-0.38674-0.049-0.78249 0.1324-0.99024 0.4922l-1 1.7324c-0.277 0.4799-0.11259 1.0903 0.36719 1.3672 0.47978 0.277 1.0882 0.1126 1.3652-0.3672l1-1.7324c0.277-0.4798 0.11455-1.0882-0.36523-1.3652-0.11995-0.069-0.24804-0.1108-0.37695-0.127zm4 0c-0.38674-0.049-0.78249 0.1324-0.99024 0.4922l-1 1.7324c-0.277 0.4799-0.11259 1.0903 0.36719 1.3672 0.47978 0.277 1.0882 0.1126 1.3652-0.3672l1-1.7324c0.277-0.4798 0.11455-1.0882-0.36523-1.3652-0.11994-0.069-0.24804-0.1108-0.37695-0.127zm4 0c-0.38674-0.049-0.78249 0.1324-0.99024 0.4922l-1 1.7324c-0.277 0.4799-0.11259 1.0903 0.36719 1.3672 0.47978 0.277 1.0882 0.1126 1.3652-0.3672l1-1.7324c0.277-0.4798 0.11455-1.0882-0.36523-1.3652-0.11995-0.069-0.24804-0.1108-0.37695-0.127zm-8 5.2657c-0.38674-0.049-0.78053 0.1343-0.98828 0.4941l-1 1.7324c-0.277 0.4798-0.11455 1.0882 0.36523 1.3652s1.0902 0.1146 1.3672-0.3652l1-1.7324c0.277-0.4798 0.11259-1.0902-0.36719-1.3672-0.11994-0.069-0.24804-0.1108-0.37695-0.1269zm4 0c-0.38674-0.049-0.78053 0.1343-0.98828 0.4941l-1 1.7324c-0.277 0.4798-0.11455 1.0882 0.36523 1.3652s1.0902 0.1146 1.3672-0.3652l1-1.7324c0.277-0.4798 0.11259-1.0902-0.36719-1.3672-0.11994-0.069-0.24804-0.1108-0.37695-0.1269z" transform="translate(0 -1020.4)"/></svg>
