<svg xmlns="http://www.w3.org/2000/svg" fill="#ffffff" height="64" width="64" viewBox="0 0 31.999999 31.999998"><path style="text-decoration-color:#000;isolation:auto;mix-blend-mode:normal;block-progression:tb;text-decoration-line:none;text-decoration-style:solid;text-indent:0;text-transform:none" d="m9.7482 1021.4c0.1649 0.6414 0.2495 1.3007 0.2519 1.9629 0 4.4183-3.5817 8-8 8-0.2498-0.0007-0.4994-0.013-0.748-0.037 0.5218 2.0468 1.8319 3.8042 3.6445 4.8887-0.5675 0.9178-0.8963 1.996-0.8965 3.1484 0 3.1616 2.4483 5.7416 5.5508 5.9727l1.1387-1.9728h-0.6895c-2.2091 0-4-1.7909-4-4s1.7909-4 4-4c0.3612 0 0.7206 0.051 1.0684 0.1484 0.4232-2.9516 2.9498-5.1446 5.9316-5.1484 2.8668 0 5.3313 2.0325 5.8828 4.8457 0.7628-0.5481 1.6779-0.8439 2.6172-0.8457 2.4853 0 4.5 2.0147 4.5 4.5s-2.0147 4.5-4.5 4.5h-0.5l-1.1523 2h1.6523c3.5899 0 6.5-2.9102 6.5-6.5s-2.9101-6.5-6.5-6.5c-0.4987 0-0.9954 0.062-1.4805 0.1777-1.3989-2.5722-4.0914-4.1747-7.0195-4.1777-0.024 0-0.048 0.01-0.072 0.01-0.4661-3.7176-3.4499-6.6137-7.1797-6.9688zm2.0996 2.709c1.6835 0.9082 2.8667 2.573 3.1015 4.541-2.396 0.6394-4.4108 2.3549-5.3652 4.7285-1.2583 0.087-2.399 0.5632-3.3203 1.2988-0.8007-0.4256-1.4985-1.0304-2.043-1.7656 4.1598-0.9833 7.2836-4.4382 7.627-8.8027zm2.5722 16.244c-0.365 0-0.7026 0.1932-0.8808 0.5117l-4.418 7.6797c-0.7184-0.9427-1.5539-1.8318-2.8848-2.1543-1.2968-0.3151-1.7695 1.6303-0.4726 1.9454 1.0117 0.2451 1.7576 1.2552 2.6367 2.5722 0.4119 0.6177 1.3294 0.5871 1.6992-0.057l5.1699-8.9863c0.3948-0.6629-0.078-1.5043-0.8496-1.5117zm3.9922 0.012c-0.365 0-0.7026 0.1932-0.8808 0.5117l-3.4395 5.9864c-0.6643 1.1543 1.0651 2.1526 1.7324 1l3.4395-5.9863c0.3951-0.6637-0.079-1.5058-0.8516-1.5117zm4 0c-0.365 0-0.7026 0.1932-0.8808 0.5117l-5.1622 8.9747c-0.5114 0.8932 0.4974 1.8833 1.3809 1.3554 1.702-1.0234 2.1758-2.1083 5.1641-1.8476 1.3586 0.1513 1.5364-1.9086 0.1718-1.9922-1.344-0.1173-2.333 0.088-3.1933 0.3789l3.3711-5.8692c0.3951-0.6636-0.079-1.5057-0.8516-1.5117zm-19.412 4.9978a1 1 0 0 0 -1 1 1 1 0 0 0 1 1 1 1 0 0 0 1 -1 1 1 0 0 0 -1 -1zm23 2a1 1 0 0 0 -1 1 1 1 0 0 0 1 1 1 1 0 0 0 1 -1 1 1 0 0 0 -1 -1zm-13 2a1 1 0 0 0 -1 1 1 1 0 0 0 1 1 1 1 0 0 0 1 -1 1 1 0 0 0 -1 -1z" color="#000" solid-color="#000000" white-space="normal" transform="translate(0 -1020.4)"/></svg>
