<svg xmlns="http://www.w3.org/2000/svg" fill="#ffffff" height="64" width="64" viewBox="0 0 31.999999 31.999998"><path d="m9.7485 1022.4c0.1649 0.6413 0.24953 1.3007 0.25195 1.9629 0 4.4183-3.5817 8-8 8-0.24979-0.0008-0.49941-0.013-0.74805-0.037 0.52182 2.0469 1.8319 3.8043 3.6445 4.8887-0.56746 0.9178-0.89625 1.9962-0.89648 3.1484 0 3.1616 2.4483 5.7417 5.5508 5.9728l1.1387-1.9728h-0.68945c-2.2091 0-4-1.7908-4-4 0-2.2091 1.7909-4 4-4 0.36119 0.001 0.72057 0.051 1.0684 0.1485 0.4232-2.9517 2.9498-5.1447 5.9316-5.1485 2.8668 0 5.3313 2.0326 5.8828 4.8458 0.76276-0.5481 1.6779-0.8439 2.6172-0.8458 2.4853 0 4.5 2.0147 4.5 4.5 0 2.4854-2.0147 4.5-4.5 4.5h-0.5l-1.1523 2h1.6523c3.5898 0 6.5-2.9101 6.5-6.5 0-3.5897-2.9102-6.5-6.5-6.5-0.49867 0-0.99543 0.062-1.4805 0.1778-1.399-2.5723-4.0915-4.1747-7.0195-4.1778-0.0245 0-0.0478 0.01-0.0723 0.01-0.46611-3.7175-3.4499-6.6137-7.1797-6.9686zm2.0996 2.709c1.6836 0.9083 2.8667 2.573 3.1016 4.541-2.396 0.6395-4.4109 2.3549-5.3652 4.7285-1.2582 0.087-2.399 0.5632-3.3203 1.2988-0.80072-0.4257-1.4984-1.0305-2.043-1.7655 4.1598-0.9834 7.2836-4.4384 7.627-8.8028zm2.6523 16.254c-0.277 0-0.5 0.4459-0.5 1v0.2929l-0.20703-0.207c-0.39174-0.3918-0.86468-0.5494-1.0606-0.3536-0.19587 0.1959-0.0382 0.6689 0.35352 1.0606l0.20703 0.2071h-0.29297c-0.554 0-1 0.2229-1 0.5 0 0.277 0.446 0.5 1 0.5h0.29297l-0.20703 0.2071c-0.39174 0.3916-0.54939 0.8646-0.35352 1.0605s0.66881 0.038 1.0606-0.3535l0.20703-0.207v0.2929c0 0.554 0.223 1 0.5 1s0.5-0.446 0.5-1v-0.2929l0.20703 0.207c0.39174 0.3917 0.86468 0.5494 1.0606 0.3535 0.19587-0.1959 0.0382-0.6688-0.35352-1.0605l-0.20703-0.2071h0.29297c0.554 0 1-0.223 1-0.5 0-0.2771-0.446-0.5-1-0.5h-0.29297l0.20703-0.2071c0.39174-0.3917 0.54939-0.8647 0.35352-1.0606-0.19587-0.1958-0.66881-0.038-1.0606 0.3536l-0.20703 0.207v-0.2929c0-0.5541-0.223-1-0.5-1zm6 0c-0.277 0-0.5 0.4459-0.5 1v0.2929l-0.20703-0.207c-0.39174-0.3918-0.86468-0.5494-1.0606-0.3536-0.19587 0.1959-0.0382 0.6689 0.35352 1.0606l0.20703 0.2071h-0.29297c-0.554 0-1 0.2229-1 0.5 0 0.277 0.446 0.5 1 0.5h0.29297l-0.20703 0.2071c-0.39174 0.3916-0.54939 0.8646-0.35352 1.0605s0.66881 0.038 1.0606-0.3535l0.20703-0.207v0.2929c0 0.554 0.223 1 0.5 1s0.5-0.446 0.5-1v-0.2929l0.20703 0.207c0.39174 0.3917 0.86468 0.5494 1.0606 0.3535 0.19587-0.1959 0.0382-0.6688-0.35352-1.0605l-0.20703-0.2071h0.29297c0.554 0 1-0.223 1-0.5 0-0.2771-0.446-0.5-1-0.5h-0.29297l0.20703-0.2071c0.39175-0.3917 0.54939-0.8647 0.35352-1.0606-0.19587-0.1958-0.66881-0.038-1.0606 0.3536l-0.20703 0.207v-0.2929c0-0.5541-0.223-1-0.5-1zm-8 5c-0.277 0-0.5 0.4459-0.5 1v0.2929l-0.20703-0.207c-0.39174-0.3918-0.86468-0.5494-1.0606-0.3536-0.19587 0.1959-0.0382 0.6689 0.35352 1.0606l0.20703 0.2071h-0.29297c-0.554 0-1 0.2229-1 0.5 0 0.277 0.446 0.5 1 0.5h0.29297l-0.20703 0.2071c-0.39174 0.3916-0.54939 0.8646-0.35352 1.0605s0.66881 0.038 1.0606-0.3535l0.20703-0.207v0.2929c0 0.554 0.223 1 0.5 1s0.5-0.446 0.5-1v-0.2929l0.20703 0.207c0.39174 0.3917 0.86468 0.5494 1.0606 0.3535 0.19587-0.1959 0.0382-0.6688-0.35352-1.0605l-0.20703-0.2071h0.29297c0.554 0 1-0.223 1-0.5 0-0.2771-0.446-0.5-1-0.5h-0.29297l0.20703-0.2071c0.39174-0.3917 0.54939-0.8647 0.35352-1.0606-0.19587-0.1958-0.66881-0.038-1.0606 0.3536l-0.20703 0.207v-0.2929c0-0.5541-0.223-1-0.5-1zm6 0c-0.277 0-0.5 0.4459-0.5 1v0.2929l-0.20703-0.207c-0.39174-0.3918-0.86468-0.5494-1.0606-0.3536-0.19587 0.1959-0.0382 0.6689 0.35352 1.0606l0.20703 0.2071h-0.29297c-0.554 0-1 0.2229-1 0.5 0 0.277 0.446 0.5 1 0.5h0.29297l-0.20703 0.2071c-0.39174 0.3916-0.54939 0.8646-0.35352 1.0605s0.66881 0.038 1.0606-0.3535l0.20703-0.207v0.2929c0 0.554 0.223 1 0.5 1s0.5-0.446 0.5-1v-0.2929l0.20703 0.207c0.39174 0.3917 0.86468 0.5494 1.0606 0.3535 0.19587-0.1959 0.0382-0.6688-0.35352-1.0605l-0.20703-0.2071h0.29297c0.554 0 1-0.223 1-0.5 0-0.2771-0.446-0.5-1-0.5h-0.29297l0.20703-0.2071c0.39174-0.3917 0.54939-0.8647 0.35352-1.0606-0.19587-0.1958-0.66881-0.038-1.0606 0.3536l-0.20703 0.207v-0.2929c0-0.5541-0.223-1-0.5-1z" transform="translate(0 -1020.4)"/></svg>
