<svg xmlns="http://www.w3.org/2000/svg" fill="#ffffff" height="64" width="64" viewBox="0 0 31.999999 31.999998"><path d="m10.748 1022.4c0.1649 0.6414 0.24953 1.3007 0.25195 1.9629 0 4.4183-3.5817 8-8 8-0.24979-0.0007-0.49941-0.013-0.74805-0.037 0.45224 1.7708 1.4972 3.3334 2.9609 4.4277-0.56896 0.7535-0.9652 1.6434-1.1289 2.6094h2.0586c0.44607-1.7223 1.9957-3 3.8574-3 0.36119 0.001 0.72057 0.051 1.0684 0.1485 0.4232-2.9517 2.9498-5.1447 5.9316-5.1485 2.8668 0 5.3313 2.0325 5.8828 4.8457 0.76276-0.5481 1.6779-0.8438 2.6172-0.8457 2.3139 0 4.1973 1.7534 4.4492 4h2.0254c-0.25631-3.3552-3.0537-6-6.4746-6-0.49867 0-0.99543 0.062-1.4805 0.1777-1.248-2.2947-3.5282-3.8092-6.084-4.1132-0.44132-3.7431-3.4354-6.6705-7.1875-7.0274zm2.0996 2.709c1.6249 0.8766 2.7857 2.4576 3.0762 4.3359-2.8188 0.3853-5.2582 2.2436-6.3398 4.9336-1.0593 0.074-2.0342 0.4243-2.8672 0.9707-0.57342-0.3884-1.0794-0.8749-1.4961-1.4375 4.1598-0.9832 7.2836-4.4382 7.627-8.8027zm-7.8477 16.254c-0.554 0-1 0.446-1 1s0.446 1 1 1h26c0.554 0 1-0.446 1-1s-0.446-1-1-1h-26zm0 4c-0.554 0-1 0.446-1 1s0.446 1 1 1h26c0.554 0 1-0.446 1-1s-0.446-1-1-1h-26zm0 4c-0.554 0-1 0.446-1 1s0.446 1 1 1h26c0.554 0 1-0.446 1-1s-0.446-1-1-1h-26z" transform="translate(0 -1020.4)"/></svg>
